<?xml version="1.0" encoding="utf-8"?>
<!-- Generator: Adobe Illustrator 22.0.1, SVG Export Plug-In . SVG Version: 6.00 Build 0)  -->
<svg version="1.1" id="yellow_x5F_bell" xmlns="http://www.w3.org/2000/svg" xmlns:xlink="http://www.w3.org/1999/xlink" x="0px"
	 y="0px" viewBox="0 0 512 512" style="enable-background:new 0 0 512 512;" xml:space="preserve">
<style type="text/css">
	.st0{fill:#FFDA44;}
	.st1{fill:#FFFFFF;}
</style>
<g id="ringing">
	<path class="st0" d="M41,194.5c-3.3-3.3-8.7-3.3-12.1,0C10.3,213.1,0,238,0,264.4s10.3,51.3,28.9,69.9c1.7,1.7,3.8,2.5,6,2.5
		c2.2,0,4.4-0.8,6-2.5c3.3-3.3,3.3-8.7,0-12.1c-15.4-15.4-23.9-36-23.9-57.8S25.6,222,41,206.6C44.3,203.2,44.3,197.8,41,194.5z"/>
	<path class="st0" d="M70.9,317.4c2.2,0,4.4-0.8,6-2.5c3.3-3.3,3.3-8.7,0-12.1c-21.8-21.8-21.8-57.3,0-79.2c3.3-3.3,3.3-8.7,0-12.1
		c-3.3-3.3-8.7-3.3-12.1,0c-28.5,28.5-28.5,74.8,0,103.3C66.5,316.5,68.7,317.4,70.9,317.4z"/>
	<path class="st0" d="M483.1,194.5c-3.3-3.3-8.7-3.3-12.1,0c-3.3,3.3-3.3,8.7,0,12.1c15.4,15.4,23.9,36,23.9,57.8
		s-8.5,42.4-23.9,57.8c-3.3,3.3-3.3,8.7,0,12.1c1.7,1.7,3.8,2.5,6,2.5c2.2,0,4.4-0.8,6-2.5c18.6-18.6,28.9-43.5,28.9-69.9
		C512,238,501.7,213.1,483.1,194.5z"/>
	<path class="st0" d="M435.1,211.6c-3.3,3.3-3.3,8.7,0,12.1c21.8,21.8,21.8,57.3,0,79.2c-3.3,3.3-3.3,8.7,0,12.1
		c1.7,1.7,3.8,2.5,6,2.5s4.4-0.8,6-2.5c28.5-28.5,28.5-74.8,0-103.3C443.8,208.2,438.4,208.2,435.1,211.6z"/>
</g>
<g id="bell">
	<path class="st0" d="M51.6,416.4c1,3,3.5,5.3,6.7,5.8l81,14c15.3,2.6,29.1,4.7,42.2,6.5c14.9,29.2,44.1,47.9,76.1,47.9
		c32,0,61.2-18.8,76.1-48c13-1.7,26.8-3.8,42-6.4l81-14c3.1-0.5,5.7-2.8,6.7-5.8c1-3,0.1-6.4-2.1-8.6c-39.8-39.5-59.9-86.3-59.9-139
		v-76.7c0.4-58.5-39-97.3-72.8-112.8c-9.5-4.4-19.6-7.6-29.8-10.1V64c0-23.5-19.1-42.7-42.7-42.7c-23.5,0-42.7,19.1-42.7,42.7v6
		c-9.2,2.4-18.3,5.4-26.8,9.3c-37.4,17.2-75.2,58.7-75.6,112.6v76.8c0,54.5-19.3,101.3-57.2,139C51.5,410.1,50.6,413.4,51.6,416.4z"
		/>
	<path class="st1" d="M281.6,64c0-14.1-11.5-25.6-25.6-25.6S230.4,49.9,230.4,64v2.1c16.9-2.7,34.2-2.8,51.2-0.4V64z"/>
	<path class="st1" d="M202.8,445.3c13,17.6,33.2,28.3,54.8,28.3c21.6,0,41.8-10.8,54.8-28.3c-0.1,0-0.2,0-0.3,0
		c-3,0.3-5.9,0.6-8.8,0.8c-1.9,0.2-3.8,0.4-5.6,0.5c-1.5,0.1-2.9,0.2-4.3,0.3c-24.8,1.8-47.6,1.8-72.4-0.1c-1.2-0.1-2.3-0.1-3.4-0.2
		c-1.6-0.1-3.2-0.3-4.8-0.4C209.4,445.9,206.1,445.6,202.8,445.3L202.8,445.3z"/>
</g>
<path id="highlight" class="st1" d="M153.6,191.9c0,4.7,3.8,8.6,8.5,8.6c0,0,0,0,0.1,0c4.7,0,8.5-3.8,8.5-8.5
	c0.2-31.4,25.8-51.5,40.8-58.5c28.4-13.1,63.5-13.1,92.2,0c4.3,2,9.4,0.1,11.3-4.2c2-4.3,0.1-9.4-4.2-11.3
	c-33.1-15.1-73.6-15.1-106.4,0C185.6,126.7,153.9,152,153.6,191.9z"/>
</svg>
