<svg id="fileIcon" xmlns="http://www.w3.org/2000/svg" viewBox="0 0 373.15 373.15">
  <defs>
    <style>
      .cls-1 {
        fill: #fff;
      }

      .cls-1, .cls-2 {
        stroke: #ccc;
        stroke-miterlimit: 10;
        stroke-width: 8px;
      }

      .cls-2 {
        fill: none;
      }
    </style>
  </defs>
  <title>fileIcon</title>
  <circle id="circle" class="cls-1" cx="186.58" cy="186.58" r="182.58"/>
  <g id="ovals">
    <path class="cls-1" d="M489.88,278c0,12.81-7.78,23.43-17.39,23.43H324.69c-9.6,0-17.39-10.62-17.39-23.43v-5.79c0-12.81,7.79-23.19,17.39-23.19h147.8c9.61,0,17.39,10.38,17.39,23.19Z" transform="translate(-213.71 -168.96)"/>
    <path class="cls-1" d="M489.88,358.43c0,12.81-7.78,22.46-17.39,22.46H324.69c-9.6,0-17.39-9.65-17.39-22.46v-5.79c0-12.81,7.79-22.46,17.39-22.46h147.8c9.61,0,17.39,9.65,17.39,22.46Z" transform="translate(-213.71 -168.96)"/>
    <path class="cls-1" d="M489.88,438.85c0,12.81-7.78,23.19-17.39,23.19H324.69c-9.6,0-17.39-10.38-17.39-23.19v-5.79c0-12.81,7.79-23.43,17.39-23.43h147.8c9.61,0,17.39,10.62,17.39,23.43Z" transform="translate(-213.71 -168.96)"/>
  </g>
  <g id="details">
    <line class="cls-2" x1="159.53" y1="105.43" x2="250.82" y2="105.43"/>
    <line class="cls-2" x1="159.53" y1="186.58" x2="250.82" y2="186.58"/>
    <line class="cls-2" x1="159.53" y1="267.72" x2="250.82" y2="267.72"/>
  </g>
</svg>
