<?xml version="1.0" encoding="utf-8"?>
<!-- Generator: Adobe Illustrator 22.0.1, SVG Export Plug-In . SVG Version: 6.00 Build 0)  -->
<svg version="1.1" id="idea" xmlns="http://www.w3.org/2000/svg" xmlns:xlink="http://www.w3.org/1999/xlink" x="0px" y="0px"
	 viewBox="0 0 512 512" style="enable-background:new 0 0 512 512;" xml:space="preserve">
<style type="text/css">
	.st0{fill:#344A5E;}
	.st1{fill:#415A6B;}
	.st2{fill:#FFD15C;}
</style>
<g id="light">
	<path class="st0" d="M222.9,489.6C228.2,502.4,241,512,256,512c14.9,0,27.7-9.6,33.1-22.4H222.9z"/>
	<path class="st0" d="M295.5,490.7h-77.9c-10.7,0-19.2-8.5-19.2-19.2v-81.1h116.3v81.1C314.7,482.1,306.1,490.7,295.5,490.7z"/>
	<path class="st1" d="M313.6,430.9H198.4c-6.4,0-11.7-5.3-11.7-11.7l0,0c0-6.4,5.3-11.7,11.7-11.7h115.2c6.4,0,11.7,5.3,11.7,11.7
		l0,0C325.3,425.6,320,430.9,313.6,430.9z"/>
	<path class="st1" d="M313.6,468.3H198.4c-6.4,0-11.7-5.3-11.7-11.7l0,0c0-6.4,5.3-11.7,11.7-11.7h115.2c6.4,0,11.7,5.3,11.7,11.7
		l0,0C325.3,462.9,320,468.3,313.6,468.3z"/>
	<path class="st2" d="M314.7,391.5c6.4-21.3,19.2-40.5,36.3-55.5c32-26.7,52.3-67.2,52.3-112c0-83.2-69.3-151.5-154.7-147.2
		C172.8,80,110.9,144,108.8,219.7c-1.1,46.9,19.2,88.5,52.3,116.3c18.1,14.9,30.9,34.1,37.3,55.5H314.7L314.7,391.5z"/>
</g>
</svg>
