<?xml version="1.0" encoding="utf-8"?>
<!-- Generator: Adobe Illustrator 22.0.1, SVG Export Plug-In . SVG Version: 6.00 Build 0)  -->
<svg version="1.1" id="biggie_x5F_bank" xmlns="http://www.w3.org/2000/svg" xmlns:xlink="http://www.w3.org/1999/xlink" x="0px"
	 y="0px" viewBox="0 0 59 59" style="enable-background:new 0 0 59 59;" xml:space="preserve">
<style type="text/css">
	.st0{fill:#F4ADC9;}
	.st1{fill:#FFFFFF;}
	.st2{fill:#E685A5;}
	.st3{fill:#FFD949;}
	.st4{fill:#F4BF1A;}
</style>
<g id="pig">
	<path id="XMLID_118_" class="st0" d="M52.8,34.4c-0.1,0-0.2,0-0.3,0c-1.9,0-3.5-1.6-3.5-3.5c0-1.5,0.9-2.7,2.2-3.2
		c-1.9-5.1-5.5-8.9-10.1-11.3c0,0,0,0,0,0c-0.6,1.6-1.6,2.9-2.8,4.1C33.6,18,28,18.2,23.5,21.1c-1.8-1.4-3.2-3.3-3.9-5.5
		c0-0.1-0.1-0.1-0.1-0.2c-1.4,0.5-2.7,0.9-3.5,1.2c-4.2-1.7-7.1-2.4-9.7-2.2c-0.4,0-0.4,0.5-0.1,0.7c2.3,1.1,2.7,4.1,3.8,6.3
		c-3,2.9-3.3,5.1-3.9,8.9H4c-2.9,0-4,2.3-4,5.2v3.6c0,2.9,1.1,5.2,4,5.2h1.3c3,8.7,13.5,13.3,24.4,13.3C43.1,57.7,53,50,53,38.4
		C53,37,52.9,35.7,52.8,34.4"/>
	<path id="XMLID_117_" class="st1" d="M16,28.9c0,1.4-1.1,2.5-2.5,2.5S11,30.3,11,28.9s1.1-2.5,2.5-2.5S16,27.5,16,28.9"/>
	<path id="XMLID_116_" class="st2" d="M53,38.4c-0.6,0-1-0.4-1-1s0.4-1,1-1c2.2,0,4-1.8,4-4c0-0.6,0.4-1,1-1s1,0.4,1,1
		C59,35.7,56.3,38.4,53,38.4"/>
	<path id="XMLID_115_" class="st2" d="M58,33.4c-0.6,0-1-0.4-1-1c0-2.2-1.8-4-4-4c-0.6,0-1-0.4-1-1s0.4-1,1-1c3.3,0,6,2.7,6,6
		C59,33,58.6,33.4,58,33.4"/>
	<path id="XMLID_112_" class="st2" d="M52.5,35.4c-2.5,0-4.5-2-4.5-4.5s2-4.5,4.5-4.5s4.5,2,4.5,4.5C57,33.4,55,35.4,52.5,35.4
		 M52.5,28.4c-1.4,0-2.5,1.1-2.5,2.5s1.1,2.5,2.5,2.5s2.5-1.1,2.5-2.5C55,29.5,53.9,28.4,52.5,28.4"/>
	<path id="XMLID_111_" class="st2" d="M56,31.4c-0.1,0-0.3,0-0.4-0.1C55,31,54.8,30.5,55.1,30c0.6-1.3,0.6-2.8,0-4.1
		c-0.2-0.5,0-1.1,0.5-1.3c0.5-0.2,1.1,0,1.3,0.5c0.8,1.8,0.8,4,0,5.8C56.7,31.2,56.3,31.4,56,31.4"/>
	<path id="XMLID_110_" class="st2" d="M48.7,50.2c-2.4,2.8-5.7,4.9-9.7,6.2l0.3,1c0.2,0.7,0.9,1.2,1.6,1.2h6c2.3,0,3.9-2.3,3.2-4.5
		L48.7,50.2z"/>
	<path id="XMLID_109_" class="st2" d="M9,50.3l-1.6,4c-0.8,2,0.7,4.2,2.8,4.2h6.7c0.4,0,0.8-0.3,1-0.7l0.7-1.8
		C14.8,54.8,11.5,52.8,9,50.3"/>
	<path id="XMLID_108_" class="st2" d="M28.4,54.6c-3.7,0-7.1-0.7-10.5-2.2c-0.5-0.2-0.7-0.8-0.5-1.3c0.2-0.5,0.8-0.7,1.3-0.5
		c3.9,1.7,7.7,2.3,12.2,1.9c0.5-0.1,1,0.4,1.1,0.9c0,0.6-0.4,1-0.9,1.1C30.2,54.6,29.3,54.6,28.4,54.6"/>
	<path id="XMLID_107_" class="st2" d="M41.9,24.1c-0.3,0-0.5-0.1-0.7-0.3c-5.4-5.4-14.1-5.4-19.5,0c-0.4,0.4-1,0.4-1.4,0
		c-0.4-0.4-0.4-1,0-1.4c6.1-6.1,16.1-6.1,22.3,0c0.4,0.4,0.4,1,0,1.4C42.4,24,42.1,24.1,41.9,24.1"/>
</g>
<g id="coin">
	<path id="XMLID_106_" class="st3" d="M22.7,20.4c4.9-3.3,11.2-3.5,16.3-0.7c1.8-2,3-4.7,3-7.7c0-6.4-5.1-11.5-11.5-11.5
		S19,5.7,19,12C19,15.3,20.4,18.3,22.7,20.4"/>
	<path id="XMLID_105_" class="st4" d="M26.8,18.5c2.6-0.8,5.4-0.9,8.1-0.3c1.9-1.4,3.2-3.6,3.2-6.1c0-4.1-3.4-7.5-7.5-7.5
		c-4.1,0-7.5,3.4-7.5,7.5C23.1,14.8,24.6,17.2,26.8,18.5"/>
</g>
</svg>
