<?xml version="1.0" encoding="utf-8"?>
<!-- Generator: Adobe Illustrator 22.0.1, SVG Export Plug-In . SVG Version: 6.00 Build 0)  -->
<svg version="1.1" id="skype" xmlns="http://www.w3.org/2000/svg" xmlns:xlink="http://www.w3.org/1999/xlink" x="0px" y="0px"
	 viewBox="0 0 400.9 400.9" style="enable-background:new 0 0 400.9 400.9;" xml:space="preserve">
<style type="text/css">
	.st0{fill:#00AAF2;}
	.st1{fill:#FFFFFF;}
</style>
<path id="bckgd" class="st0" d="M16.2,169.9c6.4,8.8,9.3,19.5,9.3,30.4c0,0.1,0,0.1,0,0.2c0,96.6,78.3,175,175,175
	c21.1,0,41.4-3.8,60.2-10.6c10.1-3.7,21.3-4.4,31.7-1.5c9.2,2.6,19,3.7,29.2,3c42.7-2.9,77.1-38,79.3-80.7
	c1.1-20.4-5.1-39.4-16.1-54.5c-6.4-8.8-9.3-19.5-9.3-30.4c0-0.1,0-0.1,0-0.2c0-96.6-78.3-175-175-175c-21.1,0-41.4,3.8-60.2,10.6
	c-10.1,3.7-21.3,4.4-31.7,1.5c-9.2-2.6-19-3.7-29.2-3c-42.7,2.9-77.1,38-79.3,80.7C-0.9,135.8,5.2,154.7,16.2,169.9z"/>
<path id="s" class="st1" d="M106.2,275.2c1.5,1.8,36.4,44.9,91.7,44.9c18,0,38.9-1.1,57.4-9c25.9-11.1,40.1-33.2,40.1-62.1
	c0-58.7-53.3-71.4-88.6-79.8c-37.8-9-43.8-13-43.8-25.1c0-11.4,21-19,42.4-17c28.2,2.7,47,23.6,47.6,24.4c8.6,11.6,25,14,36.7,5.5
	c11.7-8.6,14.2-25.1,5.6-36.8c-1.4-1.9-34.2-45.7-89.9-45.7c-88.2,0-95,55-95,71.8c0,54.1,50.7,66.2,84.3,74.1
	c39.6,9.4,49.4,17.5,48.1,28.6c-1.1,9.1-9.2,19.7-44.8,18.5c-29.6-0.9-50.5-24.9-50.6-25c-9.1-11.4-25.6-13.2-37-4.2
	C99,247.3,97.2,263.8,106.2,275.2z"/>
</svg>
